<svg width="72" height="28" viewBox="0 0 72 28" fill="none" xmlns="http://www.w3.org/2000/svg">
<path d="M21.1152 27H15.8418V16.0312H5.55859V27H0.285156V1.40625H5.55859V11.7773H15.8418V1.40625H21.1152V27ZM36.7949 25.0664C35.541 26.5898 33.8066 27.3516 31.5918 27.3516C29.5527 27.3516 27.9941 26.7656 26.916 25.5938C25.8496 24.4219 25.3047 22.7051 25.2812 20.4434V7.98047H30.3613V20.2676C30.3613 22.248 31.2637 23.2383 33.0684 23.2383C34.791 23.2383 35.9746 22.6406 36.6191 21.4453V7.98047H41.7168V27H36.9355L36.7949 25.0664ZM50.9102 27H45.8125V0H50.9102V27ZM66.502 25.0664C65.248 26.5898 63.5137 27.3516 61.2988 27.3516C59.2598 27.3516 57.7012 26.7656 56.623 25.5938C55.5566 24.4219 55.0117 22.7051 54.9883 20.4434V7.98047H60.0684V20.2676C60.0684 22.248 60.9707 23.2383 62.7754 23.2383C64.498 23.2383 65.6816 22.6406 66.3262 21.4453V7.98047H71.4238V27H66.6426L66.502 25.0664Z" fill="#EBEBEB"/>
</svg>
